<?xml version="1.0" encoding="utf-8"?><svg viewBox="0 0 149 72" xmlns="http://www.w3.org/2000/svg" xmlns:xlink="http://www.w3.org/1999/xlink"><style>:root>svg{display:none}:root>svg:target{display:block}</style><svg fill="none" viewBox="0 0 72 72" id="advant-1" xmlns="http://www.w3.org/2000/svg"><g clip-path="url(#aa)" stroke-width="2.75" stroke-linecap="round" stroke-linejoin="round"><path d="M27 12v54m-9-54h33a6 6 0 0 1 6 6v36a6 6 0 0 1-6 6H18a3 3 0 0 1-3-3V15a3 3 0 0 1 3-3v0Z" stroke="#3F3A64"/><path d="M39 24h6M39 36h6" stroke="#20AD96"/></g><defs><clipPath id="aa"><path fill="#fff" d="M0 0h72v72H0z"/></clipPath></defs></svg><svg fill="none" viewBox="0 0 72 72" id="advant-2" xmlns="http://www.w3.org/2000/svg"><g clip-path="url(#ba)" stroke-width="2.75" stroke-linecap="round" stroke-linejoin="round"><path d="m62.25 45.5-9.75-9.75H29.75a3.25 3.25 0 0 1-3.25-3.25V13a3.25 3.25 0 0 1 3.25-3.25H59A3.25 3.25 0 0 1 62.25 13v32.5Z" stroke="#3F3A64"/><path d="M39.5 48.75v6.5a3.25 3.25 0 0 1-3.25 3.25H13.5l-9.75 9.75v-32.5A3.25 3.25 0 0 1 7 32.5h6.5" stroke="#20AD96"/></g><defs><clipPath id="ba"><path fill="#fff" transform="translate(-6)" d="M0 0h78v78H0z"/></clipPath></defs></svg><svg fill="none" viewBox="0 0 72 72" id="advant-3" xmlns="http://www.w3.org/2000/svg"><g clip-path="url(#ca)" stroke-width="2.75" stroke-linecap="round" stroke-linejoin="round"><path d="M21 21a6 6 0 1 0 0-12 6 6 0 0 0 0 12ZM15 66V51l-3-3V36a3 3 0 0 1 3-3h12a3 3 0 0 1 3 3v12l-3 3v15" stroke="#20AD96"/><path d="M51 21a6 6 0 1 0 0-12 6 6 0 0 0 0 12ZM45 66V54h-6l6-18a3 3 0 0 1 3-3h6a3 3 0 0 1 3 3l6 18h-6v12" stroke="#3F3A64"/></g><defs><clipPath id="ca"><path fill="#fff" d="M0 0h72v72H0z"/></clipPath></defs></svg><svg fill="none" viewBox="0 0 101 17" id="decor-black" xmlns="http://www.w3.org/2000/svg"><path d="M26.26 4.323 38.347 17 50.523 4.323 62.654 17 74.74 4.323 86.87 17 101 2.234 98.816 0 86.87 12.483 74.925 0l-.186.194L74.6 0 62.655 12.483 50.663 0l-.14.194L50.337 0 38.346 12.483 26.4 0l-.14.194L26.076 0 14.13 12.483 2.185 0 0 2.234 14.13 17 26.26 4.323Z" fill="#3F3A64"/></svg><svg fill="none" viewBox="0 0 101 17" id="decor-green" xmlns="http://www.w3.org/2000/svg"><path d="M26.26 4.323 38.347 17 50.523 4.323 62.654 17 74.74 4.323 86.87 17 101 2.234 98.816 0 86.87 12.483 74.925 0l-.186.194L74.6 0 62.655 12.483 50.663 0l-.14.194L50.337 0 38.346 12.483 26.4 0l-.14.194L26.076 0 14.13 12.483 2.185 0 0 2.234 14.13 17 26.26 4.323Z" fill="#20AD96"/></svg><svg viewBox="0 0 24 24" id="face" xmlns="http://www.w3.org/2000/svg"><g clip-path="url(#fa)"><path d="M24 12c0-6.627-5.373-12-12-12S0 5.373 0 12c0 5.99 4.388 10.954 10.125 11.854V15.47H7.078V12h3.047V9.356c0-3.007 1.792-4.668 4.533-4.668 1.312 0 2.686.234 2.686.234v2.953H15.83c-1.491 0-1.956.925-1.956 1.875V12h3.328l-.532 3.469h-2.796v8.385C19.612 22.954 24 17.99 24 12Z"/></g><defs><clipPath id="fa"><path fill="#fff" d="M0 0h24v24H0z"/></clipPath></defs></svg><svg viewBox="0 0 24 24" id="in" xmlns="http://www.w3.org/2000/svg"><path d="M22.223 0H1.772C.792 0 0 .773 0 1.73v20.536C0 23.222.792 24 1.772 24h20.451c.98 0 1.777-.778 1.777-1.73V1.73C24 .773 23.203 0 22.223 0ZM7.12 20.452H3.558V8.995H7.12v11.457ZM5.34 7.434a2.064 2.064 0 1 1 0-4.125 2.063 2.063 0 0 1 0 4.125Zm15.112 13.018h-3.558v-5.57c0-1.326-.024-3.037-1.852-3.037-1.851 0-2.133 1.449-2.133 2.944v5.663H9.356V8.995h3.413v1.566h.047c.473-.9 1.636-1.852 3.365-1.852 3.605 0 4.27 2.372 4.27 5.457v6.286Z"/></svg><svg fill="none" viewBox="0 0 149 28" id="logo" xmlns="http://www.w3.org/2000/svg"><path d="M16.262 3.012a4.59 4.59 0 0 1 3.968 2.282l3.87 6.656a4.589 4.589 0 0 1 0 4.615l-3.87 6.656a4.59 4.59 0 0 1-3.968 2.282H8.46a4.59 4.59 0 0 1-3.968-2.282l-3.87-6.656a4.59 4.59 0 0 1 0-4.615l3.87-6.656a4.59 4.59 0 0 1 3.968-2.282h7.8Z" fill="#20AD96"/><path d="m7.832 19.478 2.519-2.519h5.878a.84.84 0 0 0 .84-.84v-5.038a.84.84 0 0 0-.84-.84H8.671a.84.84 0 0 0-.84.84v8.397Z" stroke="#fff" stroke-width="1.606" stroke-linecap="round" stroke-linejoin="round"/><path d="M36.416 19.478h-2.351V8.028h2.35v4.786h4.955V8.028h2.351v11.45h-2.35v-4.61h-4.955v4.61Zm15.36 0h-1.909l-.114-.908a2.9 2.9 0 0 1-1.039.786 3.309 3.309 0 0 1-1.358.275c-.535 0-1.01-.102-1.428-.305a2.487 2.487 0 0 1-.985-.855 2.227 2.227 0 0 1-.358-1.245c0-.488.13-.918.389-1.29.26-.371.616-.661 1.069-.87.458-.214.977-.32 1.557-.32.34 0 .682.038 1.023.114.346.076.666.183.962.32v-.198a1.23 1.23 0 0 0-.26-.786 1.613 1.613 0 0 0-.702-.52 2.573 2.573 0 0 0-.993-.183c-.35 0-.7.056-1.045.168-.341.112-.657.28-.947.504l-.595-1.671a7.3 7.3 0 0 1 1.557-.596 6.097 6.097 0 0 1 1.534-.206c.743 0 1.387.148 1.931.443.545.29.965.702 1.26 1.236.3.53.45 1.158.45 1.886v4.221Zm-3.94-1.534c.29 0 .568-.064.833-.19.264-.128.478-.301.64-.52.169-.219.258-.46.268-.725v-.054a2.661 2.661 0 0 0-.748-.35 2.684 2.684 0 0 0-.825-.13c-.417 0-.758.091-1.023.274-.264.184-.396.42-.396.71 0 .189.053.359.16.512.112.147.262.264.45.35.188.082.402.123.642.123Zm7.223 5.351H52.86v-11.45h1.924l.114 1.038a3.494 3.494 0 0 1 2.664-1.19c.703-.001 1.326.172 1.87.518.545.341.975.812 1.29 1.412.316.596.474 1.275.474 2.039 0 .758-.158 1.437-.473 2.038a3.664 3.664 0 0 1-1.29 1.42c-.545.34-1.168.511-1.87.511-.5 0-.962-.09-1.39-.267a3.566 3.566 0 0 1-1.114-.756v4.687Zm1.946-5.634c.382 0 .718-.084 1.008-.251.29-.173.516-.41.68-.71.167-.306.251-.652.251-1.038 0-.392-.084-.738-.252-1.039-.163-.3-.39-.537-.68-.71a1.914 1.914 0 0 0-1-.26 1.95 1.95 0 0 0-1.656.879c-.173.274-.272.59-.297.946v.382a1.89 1.89 0 0 0 .985 1.573c.284.152.605.229.961.229Zm7.153 5.634H61.96v-11.45h1.923l.115 1.038a3.494 3.494 0 0 1 2.664-1.19c.703-.001 1.326.172 1.87.518.545.341.975.812 1.29 1.412.316.596.474 1.275.474 2.039 0 .758-.158 1.437-.473 2.038a3.666 3.666 0 0 1-1.29 1.42c-.545.34-1.168.511-1.87.511-.5 0-.963-.09-1.39-.267a3.572 3.572 0 0 1-1.115-.756v4.687Zm1.947-5.634c.382 0 .718-.084 1.008-.251.29-.173.516-.41.679-.71.168-.306.252-.652.252-1.038 0-.392-.084-.738-.252-1.039-.163-.3-.39-.537-.68-.71a1.915 1.915 0 0 0-1-.26c-.356 0-.676.08-.961.237a1.867 1.867 0 0 0-.695.642c-.173.274-.272.59-.298.946v.382c.026.346.125.657.298.931.173.27.402.484.687.642.285.152.606.229.962.229Zm8.703 5.634h-2.336l1.588-3.824-3.855-7.626h2.473l2.42 5.13 2.122-5.13h2.328l-4.74 11.45Zm18.1-5.252a5.81 5.81 0 0 1-1.9 1.222 6.337 6.337 0 0 1-2.39.442 6.38 6.38 0 0 1-2.404-.442 5.899 5.899 0 0 1-1.916-1.252c-.54-.54-.96-1.17-1.26-1.894a6.108 6.108 0 0 1-.45-2.366c0-.855.15-1.644.45-2.366.3-.728.72-1.36 1.26-1.893a5.798 5.798 0 0 1 1.916-1.245c.733-.3 1.534-.45 2.404-.45.855 0 1.647.147 2.375.443a5.747 5.747 0 0 1 1.9 1.229l-1.64 1.649c-.322-.392-.714-.7-1.177-.924a3.299 3.299 0 0 0-1.496-.344 3.415 3.415 0 0 0-2.565 1.122 3.728 3.728 0 0 0-.755 1.237 4.321 4.321 0 0 0-.267 1.534c0 .56.089 1.077.267 1.55.178.473.43.888.755 1.244.326.351.705.626 1.138.825.437.193.913.29 1.427.29a3.36 3.36 0 0 0 1.496-.336c.458-.229.848-.54 1.168-.931l1.665 1.656Zm4.375 1.588c-.784 0-1.486-.17-2.107-.512a3.87 3.87 0 0 1-1.465-1.412c-.351-.6-.527-1.282-.527-2.046 0-.758.176-1.435.527-2.03.356-.6.844-1.074 1.465-1.42.621-.346 1.323-.519 2.107-.519.784 0 1.481.173 2.092.52.615.345 1.099.818 1.45 1.419.356.595.535 1.272.535 2.03 0 .764-.179 1.446-.535 2.046a3.827 3.827 0 0 1-1.45 1.412c-.61.341-1.308.512-2.092.512Zm-.007-1.962c.35 0 .664-.086.939-.26.28-.177.498-.417.656-.717.163-.305.244-.654.244-1.046 0-.376-.081-.715-.244-1.015a1.803 1.803 0 0 0-.656-.71 1.688 1.688 0 0 0-.94-.267c-.356 0-.674.089-.954.267a1.88 1.88 0 0 0-.656.71c-.158.3-.237.639-.237 1.015 0 .392.079.74.237 1.046.163.3.382.54.656.718.28.173.598.26.955.26Zm11.664 1.81h-1.908l-.115-.91a2.9 2.9 0 0 1-1.038.787 3.306 3.306 0 0 1-1.358.275c-.535 0-1.011-.102-1.428-.305a2.487 2.487 0 0 1-.985-.855 2.228 2.228 0 0 1-.359-1.245c0-.488.13-.918.39-1.29a2.594 2.594 0 0 1 1.068-.87c.458-.214.978-.32 1.558-.32.341 0 .682.038 1.023.114.346.076.666.183.962.32v-.198a1.23 1.23 0 0 0-.26-.786 1.613 1.613 0 0 0-.702-.52 2.578 2.578 0 0 0-.993-.183c-.351 0-.699.056-1.046.168a3.14 3.14 0 0 0-.946.504l-.596-1.671a7.314 7.314 0 0 1 1.558-.596 6.093 6.093 0 0 1 1.534-.206c.743 0 1.387.148 1.931.443.545.29.965.702 1.26 1.236.3.53.45 1.158.45 1.886v4.221Zm-3.939-1.535c.29 0 .568-.064.832-.19.265-.128.479-.301.642-.52.168-.219.257-.46.267-.725v-.054a2.658 2.658 0 0 0-.748-.35 2.688 2.688 0 0 0-.825-.13c-.417 0-.758.091-1.023.274-.264.184-.397.42-.397.71 0 .189.054.359.161.512.112.147.262.264.45.35a1.6 1.6 0 0 0 .641.123Zm11.787.32a3.933 3.933 0 0 1-1.366 1.008 4.34 4.34 0 0 1-1.779.359c-.783 0-1.486-.17-2.107-.512a3.878 3.878 0 0 1-1.458-1.42c-.351-.6-.526-1.28-.526-2.038 0-.763.175-1.442.526-2.038.357-.6.843-1.071 1.458-1.412.621-.346 1.324-.519 2.107-.519.641 0 1.232.12 1.771.359.54.239.995.57 1.367.992l-1.29 1.351a2.007 2.007 0 0 0-.756-.534 2.323 2.323 0 0 0-.947-.198c-.381 0-.722.086-1.023.259-.3.168-.536.402-.71.702a1.985 1.985 0 0 0-.259 1.023c0 .392.086.74.259 1.046.174.305.41.545.71.718.301.168.642.252 1.023.252.331 0 .649-.064.954-.191.306-.133.555-.313.749-.542l1.297 1.336Zm.718 1.214V8.028h2.191v4.717c.55-.702 1.339-1.053 2.367-1.053.962 0 1.712.298 2.252.893.539.59.809 1.417.809 2.481v4.412h-2.191v-3.832c0-.636-.14-1.127-.42-1.473-.28-.346-.672-.52-1.175-.52-.514 0-.916.176-1.207.527-.29.352-.435.84-.435 1.466v3.832h-2.191Zm9.81-9.458a.98.98 0 0 1-.732-.305 1.02 1.02 0 0 1-.298-.74c0-.29.099-.535.298-.733a.98.98 0 0 1 .732-.306c.296 0 .542.102.741.306a.985.985 0 0 1 .305.732c0 .29-.102.537-.305.74a.993.993 0 0 1-.741.306Zm1.1 9.458h-2.191v-7.633h2.191v7.633Zm8.878 0h-2.191V15.57c0-.595-.142-1.061-.427-1.397-.28-.341-.664-.511-1.153-.511-.509 0-.913.178-1.214.534-.295.351-.442.83-.442 1.435v3.847h-2.191v-7.633h1.771l.076 1.221a2.772 2.772 0 0 1 1.076-1.023c.443-.234.965-.351 1.565-.351.972 0 1.736.3 2.291.9.559.596.839 1.42.839 2.474v4.412Zm4.207.092c-.687 0-1.303-.17-1.847-.512a3.629 3.629 0 0 1-1.283-1.404c-.31-.596-.466-1.27-.466-2.023 0-.758.156-1.433.466-2.023.31-.59.738-1.056 1.283-1.397.544-.346 1.162-.519 1.854-.519.54 0 1.034.107 1.481.32.453.21.843.5 1.168.87l.1-1.037h1.923v7.42c0 .844-.185 1.58-.557 2.206a3.689 3.689 0 0 1-1.557 1.458c-.672.346-1.458.519-2.359.519-1.252 0-2.387-.392-3.405-1.176l.886-1.786c.677.667 1.466 1 2.366 1 .484 0 .906-.097 1.268-.29.366-.194.651-.463.854-.81.209-.345.313-.747.313-1.205v-.626a3.535 3.535 0 0 1-1.106.748 3.521 3.521 0 0 1-1.382.267Zm.565-1.954c.356 0 .679-.077.969-.23a1.763 1.763 0 0 0 .954-1.595v-.328c0-.351-.089-.664-.267-.939a1.792 1.792 0 0 0-.694-.641 1.954 1.954 0 0 0-.962-.237c-.367 0-.695.087-.985.26a1.88 1.88 0 0 0-.687.71 2.016 2.016 0 0 0-.252 1.015c0 .382.084.723.252 1.023.168.3.397.537.687.71.29.168.618.252.985.252Z" fill="#333461"/></svg><svg viewBox="0 0 24 24" id="soc" xmlns="http://www.w3.org/2000/svg"><path fill-rule="evenodd" clip-rule="evenodd" d="M12 0C5.375 0 0 5.375 0 12s5.375 12 12 12c6.612 0 12-5.375 12-12S18.612 0 12 0Zm7.926 5.531a10.202 10.202 0 0 1 2.317 6.378c-.338-.065-3.722-.755-7.132-.325-.079-.17-.144-.352-.222-.534a30.53 30.53 0 0 0-.676-1.484c3.774-1.536 5.492-3.748 5.713-4.035ZM12 1.771c2.603 0 4.985.975 6.794 2.576-.182.26-1.731 2.33-5.375 3.696-1.68-3.084-3.54-5.61-3.827-6A10.424 10.424 0 0 1 12 1.77Zm-4.36.962c.273.365 2.095 2.903 3.8 5.922-4.79 1.276-9.02 1.25-9.475 1.25.664-3.176 2.812-5.818 5.675-7.172Zm-5.896 9.28v-.312c.443.013 5.414.078 10.53-1.458.299.573.572 1.158.832 1.744-.13.039-.273.078-.403.117-5.284 1.705-8.096 6.364-8.33 6.755a10.226 10.226 0 0 1-2.629-6.846ZM12 22.256c-2.369 0-4.555-.807-6.286-2.16.182-.378 2.264-4.387 8.043-6.404.026-.013.04-.013.065-.026 1.445 3.735 2.03 6.872 2.187 7.77-1.237.534-2.59.82-4.009.82Zm5.714-1.757c-.104-.625-.651-3.618-1.992-7.302 3.215-.507 6.026.326 6.378.443-.443 2.85-2.083 5.31-4.386 6.859Z"/></svg><svg viewBox="0 0 20 20" id="star" xmlns="http://www.w3.org/2000/svg"><g clip-path="url(#ja)"><path d="M9.538 1.61a.5.5 0 0 1 .924 0l2.066 4.967a.5.5 0 0 0 .421.307l5.363.43a.5.5 0 0 1 .286.878l-4.086 3.5a.5.5 0 0 0-.161.496l1.248 5.233a.5.5 0 0 1-.747.543l-4.591-2.805a.5.5 0 0 0-.522 0l-4.59 2.804a.5.5 0 0 1-.748-.542l1.248-5.233a.5.5 0 0 0-.16-.496l-4.087-3.5a.5.5 0 0 1 .286-.878l5.363-.43a.5.5 0 0 0 .421-.307L9.538 1.61Z"/></g><defs><clipPath id="ja"><path d="M0 0h20v20H0z"/></clipPath></defs></svg><svg fill="none" viewBox="0 0 39 39" id="talk" xmlns="http://www.w3.org/2000/svg"><path d="M34.135 19.353c0-8.098-6.565-14.663-14.663-14.663-8.099 0-14.663 6.565-14.663 14.663 0 8.098 6.564 14.662 14.663 14.662 8.098 0 14.663-6.564 14.663-14.662Z" fill="#fff"/><path d="M22.72 22.317s.044-.03.113-.083c1.032-.799 1.679-1.955 1.679-3.242 0-2.4-2.257-4.348-5.04-4.348s-5.041 1.947-5.041 4.348 2.257 4.282 5.04 4.282c.238 0 .628-.016 1.17-.047.706.459 1.738.835 2.64.835.28 0 .412-.229.233-.463-.273-.334-.648-.869-.793-1.283v0Z" stroke="#333461" stroke-width="2" stroke-linecap="round" stroke-linejoin="round"/><path d="M16.951 20.193a3.55 3.55 0 0 0 5.04 0" stroke="#20AD96" stroke-width="1.5" stroke-linecap="round" stroke-linejoin="round"/><path d="M34.135 19.353c0-8.098-6.565-14.663-14.663-14.663-8.099 0-14.663 6.565-14.663 14.663 0 8.098 6.564 14.662 14.663 14.662 8.098 0 14.663-6.564 14.663-14.662Z" stroke="#fff" stroke-width="8"/></svg><svg fill="none" viewBox="0 0 56 56" id="target" xmlns="http://www.w3.org/2000/svg"><g stroke-width="3" stroke-linecap="round" stroke-linejoin="round" clip-path="url(#la)"><path d="M39.55 16.45c6.378 6.38 6.378 16.72 0 23.1-6.379 6.378-16.72 6.378-23.1 0-6.378-6.38-6.378-16.72 0-23.1 6.38-6.378 16.721-6.378 23.1 0Z" stroke="#20AD96"/><path d="M31.3 24.7a4.667 4.667 0 1 1-6.6 6.6 4.667 4.667 0 0 1 6.6-6.6" stroke="#333461"/><path d="M28 49v-9.333M28 7v9.333M16.333 28H7M49 28h-9.333" stroke="#20AD96"/></g><defs><clipPath id="la"><path fill="#fff" d="M0 0h56v56H0z"/></clipPath></defs></svg></svg>